<svg width="24" height="24" viewBox="0 0 24 24" fill="none" xmlns="http://www.w3.org/2000/svg">
  <path d="M20.84 4.61A5.5 5.5 0 0 0 18 8c0 3.31-2.69 6-6 6s-6-2.69-6-6a5.5 5.5 0 0 0-2.84-4.61C5.8 3.71 8.24 3 12 3s6.2 0.71 8.84 1.61z" stroke="#666" stroke-width="2" stroke-linecap="round" stroke-linejoin="round"/>
  <path d="M15.5 12c0 1.38-1.12 2.5-2.5 2.5s-2.5-1.12-2.5-2.5 1.12-2.5 2.5-2.5 2.5 1.12 2.5 2.5z" stroke="#666" stroke-width="2" stroke-linecap="round" stroke-linejoin="round"/>
  <path d="M16 21v-2a4 4 0 0 0-4-4H6a4 4 0 0 0-4 4v2" stroke="#666" stroke-width="2" stroke-linecap="round" stroke-linejoin="round"/>
</svg>