<svg width="24" height="24" viewBox="0 0 24 24" fill="none" xmlns="http://www.w3.org/2000/svg">
  <path d="M18.5 16.5C18.5 17.8807 17.3807 19 16 19H8C6.61929 19 5.5 17.8807 5.5 16.5V7.5C5.5 6.11929 6.61929 5 8 5H16C17.3807 5 18.5 6.11929 18.5 7.5V16.5Z" fill="#07C160"/>
  <path d="M10.5 9C10.5 8.44772 10.9477 8 11.5 8H12.5C13.0523 8 13.5 8.44772 13.5 9V12.5C13.5 13.0523 13.0523 13.5 12.5 13.5H11.5C10.9477 13.5 10.5 13.0523 10.5 12.5V9Z" fill="white"/>
  <path d="M15 9C15 8.44772 15.4477 8 16 8H17C17.5523 8 18 8.44772 18 9V12.5C18 13.0523 17.5523 13.5 17 13.5H16C15.4477 13.5 15 13.0523 15 12.5V9Z" fill="white"/>
  <path d="M7.5 15.5C7.38055 15.5 7.27704 15.5527 7.20098 15.6415C7.12492 15.7302 7.07813 15.8437 7.07813 15.968C7.07813 16.0922 7.12492 16.2057 7.20098 16.2945C7.27704 16.3832 7.38055 16.4359 7.5 16.4359H7.8044C7.92385 16.4359 8.03731 16.3832 8.12606 16.2945C8.21481 16.2057 8.2616 16.0922 8.2616 15.968C8.2616 15.8437 8.21481 15.7302 8.12606 15.6415C8.03731 15.5527 7.92385 15.5 7.8044 15.5H7.5Z" fill="white"/>
  <path d="M16.2 15.5C16.0806 15.5 15.9771 15.5527 15.901 15.6415C15.825 15.7302 15.7782 15.8437 15.7782 15.968C15.7782 16.0922 15.825 16.2057 15.901 16.2945C15.9771 16.3832 16.0806 16.4359 16.2 16.4359H16.5044C16.6239 16.4359 16.7373 16.3832 16.8261 16.2945C16.9148 16.2057 16.9616 16.0922 16.9616 15.968C16.9616 15.8437 16.9148 15.7302 16.8261 15.6415C16.7373 15.5527 16.6239 15.5 16.5044 15.5H16.2Z" fill="white"/>
</svg>